<svg xmlns="http://www.w3.org/2000/svg" width="50" height="50" viewBox="0 0 50 50">
    <defs>
        <style>
            .cls-1{fill:#fff}.cls-2,.cls-4{fill:none}.cls-2{stroke:#fff;stroke-width:2px}.cls-3{stroke:none}
        </style>
    </defs>
    <g id="twitter" transform="translate(-515 -429)">
        <g id="twitter-logo" transform="translate(522.521 375.91)">
            <path id="Twitter__x28_alt_x29_" d="M29.245 77.007a4 4 0 0 0 3.592-2.138 5.905 5.905 0 0 1-3.888.432 14.716 14.716 0 0 0-.18-.756c-.873-3.205-3.861-5.787-6.993-5.475.253-.1.51-.2.766-.283.345-.123 2.367-.452 2.049-1.166-.268-.628-2.739.474-3.2.619.614-.231 1.63-.628 1.739-1.334a4.9 4.9 0 0 0-2.578 1.221 1.773 1.773 0 0 0 .495-.979c-2.509 1.6-3.975 4.835-5.162 7.97a12.3 12.3 0 0 0-2.5-2.008 65.112 65.112 0 0 0-8.465-3.725c-.12 1.29.638 3.006 2.822 4.147a6.905 6.905 0 0 0-2.03.244c.282 1.478 1.2 2.7 3.694 3.285a3.018 3.018 0 0 0-2.26.893 3.828 3.828 0 0 0 4.06 1.99c-2.531 1.091-1.032 3.111 1.027 2.81A8.745 8.745 0 0 1 0 83.079c8.3 11.321 26.356 6.693 29.046-4.207a5 5 0 0 0 3.935-1.487 8.029 8.029 0 0 1-3.736-.378z" class="cls-1"/>
        </g>
        <g id="twitter-2" class="cls-2" data-name="twitter">
            <path d="M0 0h50v50H0z" class="cls-3" transform="translate(515 429)"/>
            <path d="M1 1h48v48H1z" class="cls-4" transform="translate(515 429)"/>
        </g>
    </g>
</svg>
